{"title":"Avengers Age of Ultron 2015 NEW SOURCE 720p HDTS XVID MP3 TiTAN","uid":11960127,"size":3077676406,"categoryP":"video","categoryS":"other","magnet":"?xt=urn:btih:7e65ab565157106b90b5fbd28602b7ac8ebbaa3c&amp;dn=Avengers+Age+of+Ultron+2015+NEW+SOURCE+720p+HDTS+XVID+MP3+TiTAN&amp;tr=udp%3A%2F%2Ftracker.openbittorrent.com%3A80&amp;tr=udp%3A%2F%2Fopen.demonii.com%3A1337&amp;tr=udp%3A%2F%2Ftracker.coppersurfer.tk%3A6969&amp;tr=udp%3A%2F%2Fexodus.desync.com%3A6969","seeders":5,"leechers":0,"uploader":"SS132203","files":2,"time":1432542404,"description":"Avengers Age of Ultron 2015 NEW SOURCE 720p HDTS XVID MP3 TiTAN\n &lt;a href=&quot;\nhttp://imgsparrow.co/image/NI&quot; rel=&quot;nofollow&quot; target=&quot;_NEW&quot;&gt;\nhttp://imgsparrow.co/image/NI&lt;/a&gt;\n\nInfo : - \n &lt;a href=&quot;\nhttp://www.imdb.com/title/tt2395427/&quot; rel=&quot;nofollow&quot; target=&quot;_NEW&quot;&gt;\nhttp://www.imdb.com/title/tt2395427/&lt;/a&gt;\n\nGeneral\n\nSource: Mp4../A friend\n\nnice new vid and line audio, all thx go to D3L for his hard work syncing it :bow:  Enjoy\n\nGeneral\n\nFormat                                   : AVI\nFormat/Info                              : Audio Video Interleave\nFormat profile                           : OpenDML\nFile size                                : 2.87 GiB\nDuration                                 : 2h 13mn\nOverall bit rate                         : 3 077 Kbps\n\nVideo\nID                                       : 0\nFormat                                   : MPEG-4 Visual\nFormat profile                           : Advanced Simple@L5\nFormat settings, BVOP                    : 2\nFormat settings, QPel                    : No\nFormat settings, GMC                     : No warppoints\nFormat settings, Matrix                  : Default (H.263)\nMuxing mode                              : Packed bitstream\nCodec ID                                 : XVID\nCodec ID/Hint                            : XviD\nDuration                                 : 2h 13mn\nBit rate                                 : 2 873 Kbps\nWidth                                    : 1 280 pixels\nHeight                                   : 592 pixels\nDisplay aspect ratio                     : 2.2:1\nFrame rate                               : 30.000 fps\nColor space                              : YUV\nChroma subsampling                       : 4:2:0\nBit depth                                : 8 bits\nScan type                                : Progressive\nCompression mode                         : Lossy\nBits/(Pixel*Frame)                       : 0.126\nStream size                              : 2.68 GiB (93%)\nWriting library                          : XviD 66\n\nAudio\nID                                       : 1\nFormat                                   : MPEG Audio\nFormat version                           : Version 1\nFormat profile                           : Layer 3\nMode                                     : Joint stereo\nMode extension                           : MS Stereo\nCodec ID                                 : 55\nCodec ID/Hint                            : MP3\nDuration                                 : 2h 12mn\nBit rate mode                            : Constant\nBit rate                                 : 192 Kbps\nChannel(s)                               : 2 channels\nSampling rate                            : 44.1 KHz\nCompression mode                         : Lossy\nDelay relative to video                  : 6s 0ms\nStream size                              : 182 MiB (6%)\nAlignment                                : Split accross interleaves\nInterleave, duration                     : 33 ms (1.00 video frame)\nInterleave, preload duration             : 500 ms\n\nScreens : - \n &lt;a href=&quot;\nhttp://imgsparrow.co/image/ru&quot; rel=&quot;nofollow&quot; target=&quot;_NEW&quot;&gt;\nhttp://imgsparrow.co/image/ru&lt;/a&gt; &lt;a href=&quot;\nhttp://imgsparrow.co/image/rw&quot; rel=&quot;nofollow&quot; target=&quot;_NEW&quot;&gt;\nhttp://imgsparrow.co/image/rw&lt;/a&gt; &lt;a href=&quot;\nhttp://imgsparrow.co/image/r4&quot; rel=&quot;nofollow&quot; target=&quot;_NEW&quot;&gt;\nhttp://imgsparrow.co/image/r4&lt;/a&gt; &lt;a href=&quot;\nhttp://imgsparrow.co/image/rH&quot; rel=&quot;nofollow&quot; target=&quot;_NEW&quot;&gt;\nhttp://imgsparrow.co/image/rH&lt;/a&gt; &lt;a href=&quot;\nhttp://imgsparrow.co/image/rT&quot; rel=&quot;nofollow&quot; target=&quot;_NEW&quot;&gt;\nhttp://imgsparrow.co/image/rT&lt;/a&gt; &lt;a href=&quot;\nhttp://imgsparrow.co/image/rb&quot; rel=&quot;nofollow&quot; target=&quot;_NEW&quot;&gt;\nhttp://imgsparrow.co/image/rb&lt;/a&gt; &lt;a href=&quot;\nhttp://imgsparrow.co/image/rh&quot; rel=&quot;nofollow&quot; target=&quot;_NEW&quot;&gt;\nhttp://imgsparrow.co/image/rh&lt;/a&gt; &lt;a href=&quot;\nhttp://imgsparrow.co/image/rj&quot; rel=&quot;nofollow&quot; target=&quot;_NEW&quot;&gt;\nhttp://imgsparrow.co/image/rj&lt;/a&gt; &lt;a href=&quot;\nhttp://imgsparrow.co/image/rr&quot; rel=&quot;nofollow&quot; target=&quot;_NEW&quot;&gt;\nhttp://imgsparrow.co/image/rr&lt;/a&gt; &lt;a href=&quot;\nhttp://imgsparrow.co/image/rD&quot; rel=&quot;nofollow&quot; target=&quot;_NEW&quot;&gt;\nhttp://imgsparrow.co/image/rD&lt;/a&gt;\n &lt;a href=&quot;\nhttp://imgsparrow.co/image/N2&quot; rel=&quot;nofollow&quot; target=&quot;_NEW&quot;&gt;\nhttp://imgsparrow.co/image/N2&lt;/a&gt;","torrent":{"xt":"urn:btih:7e65ab565157106b90b5fbd28602b7ac8ebbaa3c","amp;dn":"Avengers+Age+of+Ultron+2015+NEW+SOURCE+720p+HDTS+XVID+MP3+TiTAN","amp;tr":["udp%3A%2F%2Ftracker.openbittorrent.com%3A80","udp%3A%2F%2Fopen.demonii.com%3A1337","udp%3A%2F%2Ftracker.coppersurfer.tk%3A6969","udp%3A%2F%2Fexodus.desync.com%3A6969"],"infoHash":"7e65ab565157106b90b5fbd28602b7ac8ebbaa3c","infoHashBuffer":{"type":"Buffer","data":[126,101,171,86,81,87,16,107,144,181,251,210,134,2,183,172,142,187,170,60]},"announce":[],"urlList":[]}}